<svg width="281.000000" height="239.000000" viewBox="0 0 281 239" fill="none" xmlns="http://www.w3.org/2000/svg" xmlns:xlink="http://www.w3.org/1999/xlink">
	<desc>
			Created with Pixso.
	</desc>
	<defs>
		<clipPath id="clip41_334">
			<rect id="01" width="281.000000" height="239.000000" fill="white" fill-opacity="0"/>
		</clipPath>
	</defs>
	<rect id="01" width="281.000000" height="239.000000" fill="#FFFFFF" fill-opacity="0"/>
	<g clip-path="url(#clip41_334)">
		<g opacity="0.500000">
			<path id="01" d="M139.9 201.59Q120.65 217.1 93.24 217.1Q65.9 217.1 46.51 201.59Q27.11 186.09 18.66 163.24Q10.21 140.39 10.21 113.27Q10.21 86.16 18.66 63.31Q27.11 40.46 46.51 25.1Q65.9 9.74 93.24 9.74Q120.65 9.74 139.9 25.1Q159.22 40.46 167.74 63.31Q176.34 86.16 176.34 113.27Q176.34 140.39 167.74 163.24Q159.22 186.09 139.9 201.59ZM63.19 161.18Q72.81 179.18 93.24 179.18Q113.74 179.18 123.22 161.18Q132.7 143.1 132.7 113.35Q132.7 83.51 123.22 65.59Q113.74 47.66 93.24 47.66Q72.81 47.66 63.19 65.59Q53.56 83.51 53.56 113.35Q53.56 143.1 63.19 161.18ZM290.42 213.5L247.65 213.5L247.65 67.86L214.29 101.81L189.9 76.24L253.09 12.76L290.42 12.76L290.42 213.5Z" stroke="#FFFFFF" stroke-opacity="1.000000" stroke-width="1.000000"/>
		</g>
	</g>
</svg>
