<svg width="297.000000" height="239.000000" viewBox="0 0 297 239" fill="none" xmlns="http://www.w3.org/2000/svg" xmlns:xlink="http://www.w3.org/1999/xlink">
	<desc>
			Created with Pixso.
	</desc>
	<defs>
		<clipPath id="clip41_336">
			<rect id="02" width="297.000000" height="239.000000" fill="white" fill-opacity="0"/>
		</clipPath>
	</defs>
	<rect id="02" width="297.000000" height="239.000000" fill="#FFFFFF" fill-opacity="0"/>
	<g clip-path="url(#clip41_336)">
		<g opacity="0.500000">
			<path id="02" d="M139.9 201.59Q120.65 217.1 93.24 217.1Q65.9 217.1 46.51 201.59Q27.11 186.09 18.66 163.24Q10.21 140.39 10.21 113.27Q10.21 86.16 18.66 63.31Q27.11 40.46 46.51 25.1Q65.9 9.74 93.24 9.74Q120.65 9.74 139.9 25.1Q159.22 40.46 167.74 63.31Q176.34 86.16 176.34 113.27Q176.34 140.39 167.74 163.24Q159.22 186.09 139.9 201.59ZM63.19 161.18Q72.81 179.18 93.24 179.18Q113.74 179.18 123.22 161.18Q132.7 143.1 132.7 113.35Q132.7 83.51 123.22 65.59Q113.74 47.66 93.24 47.66Q72.81 47.66 63.19 65.59Q53.56 83.51 53.56 113.35Q53.56 143.1 63.19 161.18ZM341.84 213.5L190.77 213.5L190.77 180.06Q255.14 132.23 276.01 111.95Q296.95 91.6 296.95 73.81Q296.95 61.54 287.32 54.64Q277.7 47.66 264.47 47.66Q232.88 47.66 210.61 70.8L186.22 42.51Q200.4 26.27 220.97 18.05Q241.62 9.74 263.59 9.74Q296.65 9.74 318.48 27.23Q340.3 44.64 340.3 73.81Q340.3 98.5 320.9 122.16Q301.5 145.75 259.99 175.88L341.84 175.88L341.84 213.5Z" stroke="#FFFFFF" stroke-opacity="1.000000" stroke-width="1.000000"/>
		</g>
	</g>
</svg>
