<svg width="297.000000" height="239.000000" viewBox="0 0 297 239" fill="none" xmlns="http://www.w3.org/2000/svg" xmlns:xlink="http://www.w3.org/1999/xlink">
	<desc>
			Created with Pixso.
	</desc>
	<defs>
		<clipPath id="clip41_338">
			<rect id="03" width="297.000000" height="239.000000" fill="white" fill-opacity="0"/>
		</clipPath>
	</defs>
	<rect id="03" width="297.000000" height="239.000000" fill="#FFFFFF" fill-opacity="0"/>
	<g clip-path="url(#clip41_338)">
		<g opacity="0.500000">
			<path id="03" d="M139.9 201.59Q120.65 217.1 93.24 217.1Q65.9 217.1 46.51 201.59Q27.11 186.09 18.66 163.24Q10.21 140.39 10.21 113.27Q10.21 86.16 18.66 63.31Q27.11 40.46 46.51 25.1Q65.9 9.74 93.24 9.74Q120.65 9.74 139.9 25.1Q159.22 40.46 167.74 63.31Q176.34 86.16 176.34 113.27Q176.34 140.39 167.74 163.24Q159.22 186.09 139.9 201.59ZM63.19 161.18Q72.81 179.18 93.24 179.18Q113.74 179.18 123.22 161.18Q132.7 143.1 132.7 113.35Q132.7 83.51 123.22 65.59Q113.74 47.66 93.24 47.66Q72.81 47.66 63.19 65.59Q53.56 83.51 53.56 113.35Q53.56 143.1 63.19 161.18ZM261.75 217.1Q235.3 217.1 214.8 208.21Q194.37 199.31 182.62 184.91L204.88 156.33Q215.09 166.84 230.16 173.01Q245.22 179.18 260.28 179.18Q278.29 179.18 288.2 172.13Q298.2 165.07 298.2 153.61Q298.2 141.56 288.57 136.05Q278.95 130.47 257.86 130.47Q238.9 130.47 232.88 131.05L232.88 92.48Q236.48 92.85 257.86 92.85Q294.89 92.85 294.89 71.46Q294.89 60 284.46 53.83Q274.1 47.66 257.56 47.66Q228.39 47.66 206.72 68.45L185.34 41.63Q213.63 9.74 262.05 9.74Q297.24 9.74 317.52 24.51Q337.88 39.21 337.88 64.19Q337.88 82.26 324.94 94.46Q312.01 106.66 293.94 109.97Q311.72 111.8 326.26 124.59Q340.89 137.37 340.89 158.09Q340.89 184.33 319.21 200.71Q297.61 217.1 261.75 217.1Z" stroke="#FFFFFF" stroke-opacity="1.000000" stroke-width="1.000000"/>
		</g>
	</g>
</svg>
