<svg width="32.000000" height="32.000000" viewBox="0 0 32 32" fill="none" xmlns="http://www.w3.org/2000/svg" xmlns:xlink="http://www.w3.org/1999/xlink">
	<desc>
			Created with Pixso.
	</desc>
	<defs/>
	<path id="arrow" d="M16 30.79C7.82 30.79 1.19 24.17 1.19 16C1.19 7.82 7.82 1.2 16 1.2C24.17 1.2 30.8 7.82 30.8 16C30.8 24.17 24.17 30.79 16 30.79ZM16 32C7.16 32 0 24.83 0 16C0 7.16 7.16 0 16 0C24.83 0 32 7.16 32 16C32 24.83 24.83 32 16 32Z" fill="#FFFFFF" fill-opacity="1.000000" fill-rule="evenodd"/>
	<path id="arrow" d="M21.01 16.75C21.24 16.52 21.24 16.29 21 16.05C20.77 15.82 20.54 15.82 20.3 16.05L16.53 19.82L16.53 11.78C16.53 11.44 16.37 11.28 16.03 11.28C15.7 11.28 15.53 11.44 15.53 11.78L15.53 19.82L11.76 16.05C11.53 15.81 11.29 15.81 11.06 16.05C10.82 16.28 10.82 16.52 11.06 16.75L15.68 21.38C15.78 21.48 15.89 21.52 16.03 21.52C16.16 21.52 16.28 21.48 16.37 21.39L21.01 16.75Z" fill="#FFFFFF" fill-opacity="1.000000" fill-rule="evenodd"/>
</svg>
