<svg width="1188.000000" height="846.000000" viewBox="0 0 1188 846" fill="none" xmlns="http://www.w3.org/2000/svg" xmlns:xlink="http://www.w3.org/1999/xlink">
	<desc>
			Created with Pixso.
	</desc>
	<defs>
		<clipPath id="clip68_301">
			<rect id="map3" width="1188.000000" height="846.000000" fill="white" fill-opacity="0"/>
		</clipPath>
	</defs>
	<rect id="map3" width="1188.000000" height="846.000000" fill="#FFFFFF" fill-opacity="0"/>
	<g clip-path="url(#clip68_301)">
		<path id="path" d="M614 583C619.8 583 624.5 578.29 624.5 572.5C624.5 566.7 619.8 562 614 562C608.2 562 603.5 566.7 603.5 572.5C603.5 578.29 608.2 583 614 583Z" fill="#0081C9" fill-opacity="1.000000" fill-rule="nonzero"/>
		<path id="path" d="M614 568C612.06 568 610.5 569.52 610.5 571.41C610.5 573.29 614 577 614 577C614 577 617.5 573.29 617.5 571.41C617.5 569.52 615.93 568 614 568ZM614 572.95C613.12 572.95 612.41 572.26 612.41 571.41C612.41 570.56 613.12 569.87 614 569.87C614.87 569.87 615.58 570.56 615.58 571.41C615.58 572.26 614.87 572.95 614 572.95Z" fill="#FFFFFF" fill-opacity="1.000000" fill-rule="nonzero"/>
		<path id="path" d="M836 641C841.8 641 846.5 636.29 846.5 630.5C846.5 624.7 841.8 620 836 620C830.2 620 825.5 624.7 825.5 630.5C825.5 636.29 830.2 641 836 641Z" fill="#0081C9" fill-opacity="1.000000" fill-rule="nonzero"/>
		<path id="path" d="M836 625C833.79 625 832 626.86 832 629.17C832 631.47 836 636 836 636C836 636 840 631.47 840 629.17C840 626.86 838.2 625 836 625ZM836 631.05C835 631.05 834.19 630.21 834.19 629.17C834.19 628.13 835 627.28 836 627.28C836.99 627.28 837.8 628.13 837.8 629.17C837.8 630.21 836.99 631.05 836 631.05Z" fill="#FFFFFF" fill-opacity="1.000000" fill-rule="nonzero"/>
		<path id="path" d="M613.5 567C619.3 567 624 562.29 624 556.5C624 550.7 619.3 546 613.5 546C607.7 546 603 550.7 603 556.5C603 562.29 607.7 567 613.5 567Z" fill="#0081C9" fill-opacity="1.000000" fill-rule="nonzero"/>
		<path id="path" d="M613.5 552C611.56 552 610 553.52 610 555.41C610 557.29 613.5 561 613.5 561C613.5 561 617 557.29 617 555.41C617 553.52 615.43 552 613.5 552ZM613.5 556.95C612.62 556.95 611.91 556.26 611.91 555.41C611.91 554.56 612.62 553.87 613.5 553.87C614.37 553.87 615.08 554.56 615.08 555.41C615.08 556.26 614.37 556.95 613.5 556.95Z" fill="#FFFFFF" fill-opacity="1.000000" fill-rule="nonzero"/>
		<path id="path" d="M276 367C281.79 367 286.5 362.29 286.5 356.5C286.5 350.7 281.79 346 276 346C270.2 346 265.5 350.7 265.5 356.5C265.5 362.29 270.2 367 276 367Z" fill="#0081C9" fill-opacity="1.000000" fill-rule="nonzero"/>
		<path id="path" d="M276 351C273.79 351 272 352.86 272 355.17C272 357.47 276 362 276 362C276 362 280 357.47 280 355.17C280 352.86 278.2 351 276 351ZM276 357.05C275 357.05 274.19 356.21 274.19 355.17C274.19 354.12 275 353.28 276 353.28C276.99 353.28 277.8 354.12 277.8 355.17C277.8 356.21 276.99 357.05 276 357.05Z" fill="#FFFFFF" fill-opacity="1.000000" fill-rule="nonzero"/>
		<path id="path" d="M501 378C506.8 378 511.5 373.29 511.5 367.5C511.5 361.7 506.8 357 501 357C495.2 357 490.5 361.7 490.5 367.5C490.5 373.29 495.2 378 501 378Z" fill="#0081C9" fill-opacity="1.000000" fill-rule="nonzero"/>
		<path id="path" d="M501 361C498.79 361 497 362.86 497 365.17C497 367.47 501 372 501 372C501 372 505 367.47 505 365.17C505 362.86 503.2 361 501 361ZM501 367.05C500 367.05 499.19 366.21 499.19 365.17C499.19 364.12 500 363.28 501 363.28C501.99 363.28 502.8 364.12 502.8 365.17C502.8 366.21 501.99 367.05 501 367.05Z" fill="#FFFFFF" fill-opacity="1.000000" fill-rule="nonzero"/>
		<path id="path" d="M551 460C556.8 460 561.5 455.29 561.5 449.5C561.5 443.7 556.8 439 551 439C545.2 439 540.5 443.7 540.5 449.5C540.5 455.29 545.2 460 551 460Z" fill="#0081C9" fill-opacity="1.000000" fill-rule="nonzero"/>
		<path id="path" d="M551 444C548.78 444 547 445.86 547 448.17C547 450.47 551 455 551 455C551 455 555 450.47 555 448.17C555 445.86 553.2 444 551 444ZM551 450.05C550 450.05 549.19 449.21 549.19 448.17C549.19 447.12 550 446.28 551 446.28C551.99 446.28 552.8 447.12 552.8 448.17C552.8 449.21 551.99 450.05 551 450.05Z" fill="#FFFFFF" fill-opacity="1.000000" fill-rule="nonzero"/>
		<path id="path" d="M279 292C284.79 292 289.5 287.29 289.5 281.5C289.5 275.7 284.79 271 279 271C273.2 271 268.5 275.7 268.5 281.5C268.5 287.29 273.2 292 279 292Z" fill="#0081C9" fill-opacity="1.000000" fill-rule="nonzero"/>
		<path id="path" d="M560 508C565.8 508 570.5 503.29 570.5 497.5C570.5 491.7 565.8 487 560 487C554.2 487 549.5 491.7 549.5 497.5C549.5 503.29 554.2 508 560 508Z" fill="#0081C9" fill-opacity="1.000000" fill-rule="nonzero"/>
		<path id="path" d="M560 492C557.78 492 556 493.86 556 496.17C556 498.47 560 503 560 503C560 503 564 498.47 564 496.17C564 493.86 562.2 492 560 492ZM560 498.05C559 498.05 558.19 497.21 558.19 496.17C558.19 495.12 559 494.28 560 494.28C560.99 494.28 561.8 495.12 561.8 496.17C561.8 497.21 560.99 498.05 560 498.05Z" fill="#FFFFFF" fill-opacity="1.000000" fill-rule="nonzero"/>
		<path id="path" d="M493 389C498.8 389 503.5 384.29 503.5 378.5C503.5 372.7 498.8 368 493 368C487.2 368 482.5 372.7 482.5 378.5C482.5 384.29 487.2 389 493 389Z" fill="#0081C9" fill-opacity="1.000000" fill-rule="nonzero"/>
		<path id="path" d="M493 373C490.79 373 489 374.86 489 377.17C489 379.47 493 384 493 384C493 384 497 379.47 497 377.17C497 374.86 495.2 373 493 373ZM493 379.05C492 379.05 491.19 378.21 491.19 377.17C491.19 376.12 492 375.28 493 375.28C493.99 375.28 494.8 376.12 494.8 377.17C494.8 378.21 493.99 379.05 493 379.05Z" fill="#FFFFFF" fill-opacity="1.000000" fill-rule="nonzero"/>
		<path id="path" d="M279 276C276.79 276 275 277.86 275 280.17C275 282.47 279 287 279 287C279 287 283 282.47 283 280.17C283 277.86 281.2 276 279 276ZM279 282.05C278 282.05 277.19 281.21 277.19 280.17C277.19 279.12 278 278.28 279 278.28C279.99 278.28 280.8 279.12 280.8 280.17C280.8 281.21 279.99 282.05 279 282.05Z" fill="#FFFFFF" fill-opacity="1.000000" fill-rule="nonzero"/>
	</g>
</svg>
